# xmcd
#
# Track frame offsets: 
#        150
#        39157
#        73285
#        99126
#        129655
#        154640
#        206187
#        254388
#
# Disc length: 3745 seconds
#
# Revision: 2
# Processed by: cddbd v1.5.2PL0 Copyright (c) Steve Scherf et al.
# Submitted via: ExactAudioCopyFreeDBPlugin 1.0
#
DISCID=6a0e9f08
DTITLE=Various Artist - Philadelphia International Classics:  The Tom
DTITLE=Moulton Remixes
DYEAR=2012
DGENRE=Soul
TTITLE0=Billy Paul - The Whole Town’s Talking (Tom Moulton remix)
TTITLE1=The Trammps - Love Epidemic (Tom Moulton remix)
TTITLE2=M.F.S.B. - T.S.O.P. (The Sound of Philadelphia) (Tom Moulton r
TTITLE2=emix)
TTITLE3=The Three Degrees - Year of Decision (Tom Moulton remix)
TTITLE4=The Trammps - Where Do We Go from Here (Tom Moulton remix)
TTITLE5=M.F.S.B. - Love is the Message (Tom Moulton remix)
TTITLE6=Robert Upchurch - The Devil Made Me Do It (Tom Moulton remix)
TTITLE7=The Three Degrees - When Will I See You Again (Tom Moulton rem
TTITLE7=ix)
EXTD=
EXTT0=
EXTT1=
EXTT2=
EXTT3=
EXTT4=
EXTT5=
EXTT6=
EXTT7=
PLAYORDER=
